<svg width="86" height="96" viewBox="0 0 86 96" fill="none" xmlns="http://www.w3.org/2000/svg">
<path d="M84.4647 62.2881C84.5161 43.9041 58.827 28.9291 27.0866 28.8404C-4.65375 28.7518 -30.426 43.5831 -30.4774 61.9672C-30.5287 80.3512 -4.83966 95.3262 26.9007 95.4149C58.6411 95.5035 84.4134 80.6722 84.4647 62.2881Z" fill="black" stroke="black" stroke-linecap="round" stroke-linejoin="round"/>
<path d="M72.5788 34.0286C72.5788 34.5286 72.5788 35.0344 72.5156 35.5344V35.7298C72.4696 36.1953 72.4121 36.6666 72.3374 37.1378C72.3251 37.1909 72.3155 37.2447 72.3087 37.2988C72.2225 37.7815 72.1248 38.2585 72.0098 38.7298L71.9754 38.862C71.8489 39.3447 71.711 39.8332 71.5501 40.316L71.5156 40.4079C71.3489 40.9022 71.1593 41.4022 70.9409 41.8965C70.734 42.385 70.5041 42.8735 70.257 43.3562C70.2451 43.3903 70.2297 43.4231 70.211 43.4539C69.9773 43.9137 69.7244 44.3677 69.4524 44.816C69.4121 44.885 69.3719 44.9597 69.3259 45.0286C69.0616 45.4654 68.7512 45.9022 68.4754 46.3332C68.4236 46.4194 68.3662 46.4999 68.3087 46.5804C67.9983 47.0114 67.6823 47.4367 67.3432 47.862L67.1478 48.1033C66.8489 48.4712 66.5386 48.839 66.211 49.2011C66.1248 49.2988 66.0386 49.4022 65.9466 49.4999C65.5616 49.9194 65.165 50.3333 64.7455 50.747L64.5156 50.9712C64.1076 51.362 63.6938 51.7528 63.257 52.1206L63.1535 52.2126C62.6708 52.6378 62.1708 53.0516 61.6535 53.4654L61.5041 53.5804C60.9926 53.9827 60.4639 54.3849 59.9121 54.7758L59.7282 54.908C59.1535 55.293 58.619 55.6781 58.0386 56.0574L57.8259 56.1953C57.1995 56.5976 56.5558 56.9942 55.8949 57.3792C55.234 57.7643 54.6305 58.0861 53.9869 58.4309L53.4811 58.6953C52.9064 58.9941 52.3317 59.27 51.7167 59.5746L51.4868 59.6838C50.8259 59.9999 50.1478 60.3045 49.4696 60.5976L48.9409 60.816C48.3662 61.0631 47.7915 61.2987 47.1765 61.5344L46.7914 61.6838C46.0903 61.9482 45.3834 62.2068 44.665 62.4539L44.1478 62.6263C43.665 62.793 43.1765 62.9482 42.688 63.1034L41.2857 63.5286L40.096 63.8677L38.665 64.2528L37.4581 64.5574L35.9926 64.8965L34.7742 65.1608L33.2684 65.4597L31.9294 65.7068L31.3202 65.8102C30.6305 65.9252 29.9409 66.0344 29.2455 66.1378L28.9007 66.1896C28.1133 66.2988 27.3144 66.3964 26.5213 66.4884L25.9179 66.5516C25.4294 66.6091 24.9351 66.6551 24.4409 66.701C23.8259 66.7585 23.2052 66.8102 22.5903 66.8505L21.4409 66.9309C20.7972 66.9712 20.1478 67.0056 19.5041 67.0286L18.4121 67.0746C17.8374 67.0746 17.2972 67.1033 16.734 67.1091H15.5845H13.7857C13.4351 67.1091 13.0788 67.1091 12.7282 67.1091C12.1535 67.1091 11.6305 67.0689 11.0788 67.0459L9.92938 66.9999C9.35466 66.9654 8.74547 66.9194 8.15352 66.8792L7.14777 66.8045C6.44087 66.747 5.73973 66.6781 5.03283 66.6033L4.37765 66.5401C3.46386 66.4367 2.54432 66.3218 1.63628 66.1896L1.19374 66.1206C0.412128 66.0057 -0.369469 65.885 -1.14533 65.7528L-2.11086 65.5746C-2.68557 65.4654 -3.30051 65.3562 -3.88672 65.2355L-4.80626 65.0344C-5.45569 64.8907 -6.09937 64.7528 -6.74304 64.5976L-7.80627 64.3275C-8.38098 64.178 -8.95569 64.0286 -9.5304 63.8677C-10.1051 63.7068 -10.5246 63.5919 -11.0132 63.4424L-11.5879 63.2815C-12.3292 63.0516 -13.0591 62.816 -13.7833 62.5689L-14.1971 62.4252C-14.8005 62.2183 -15.3925 61.9999 -15.9844 61.7815L-16.5879 61.5516C-17.0534 61.3735 -17.5189 61.1838 -17.9787 60.9769L-18.9327 60.5861C-19.3867 60.3907 -19.8235 60.1896 -20.266 60.0114L-21.1396 59.6091C-21.6281 59.3792 -22.0994 59.1378 -22.5706 58.9022L-23.2833 58.5459C-23.9844 58.178 -24.6798 57.7987 -25.3522 57.3964C-36.6856 50.8505 -42.3465 42.2643 -42.3235 33.6953L-42.3867 57.1148C-42.3867 65.6895 -36.7545 74.2758 -25.4212 80.8217C-24.743 81.2125 -24.0534 81.5861 -23.3522 81.9712C-23.1166 82.0976 -22.8752 82.2125 -22.6396 82.3332C-22.1683 82.5689 -21.6913 82.8103 -21.2086 83.0401C-20.9212 83.1781 -20.6338 83.3045 -20.335 83.4367C-19.8925 83.6436 -19.4499 83.8447 -19.0017 84.0114C-18.6856 84.1493 -18.3637 84.2757 -18.0476 84.4079C-17.7315 84.5401 -17.4385 84.6666 -17.1281 84.7873L-16.6511 84.9712L-16.0764 85.201C-15.5017 85.4194 -14.8867 85.6378 -14.289 85.8447L-13.8752 85.9884C-13.1511 86.2355 -12.4155 86.4712 -11.6798 86.6953L-11.1051 86.862L-10.1511 87.1436L-9.62234 87.2872C-9.04763 87.4482 -8.47292 87.5976 -7.8982 87.747L-6.82925 88.0171L-4.89822 88.4539L-4.17408 88.6148L-3.97868 88.6551L-2.20282 88.9884L-1.23155 89.1723C-0.461437 89.3045 0.320171 89.4252 1.10178 89.5401L1.52708 89.6034C2.44087 89.7298 3.35467 89.8505 4.27421 89.9482L4.92937 90.0171C5.63052 90.0861 6.33743 90.1608 7.03857 90.2183H7.09605C7.41214 90.247 7.73398 90.2585 8.05007 90.2815C8.62479 90.3275 9.23398 90.3735 9.82593 90.4022C10.2052 90.4022 10.5903 90.4367 10.9754 90.4539L12.619 90.5171H13.6823C14.257 90.5171 14.8777 90.5171 15.4753 90.5171H16.6535L18.3317 90.4827H18.642C18.9006 90.4827 19.1593 90.4826 19.4236 90.4424C20.0673 90.4424 20.711 90.385 21.3547 90.3447L22.5041 90.2643L24.3547 90.1149L25.0041 90.0574L25.8374 89.9654L26.4121 89.9022C27.211 89.8102 28.0041 89.7125 28.7972 89.5976L29.142 89.5459C29.8374 89.4482 30.5271 89.339 31.2167 89.224L31.8259 89.1206L32.3087 89.0401C32.596 88.9884 32.8834 88.9252 33.165 88.8677C33.665 88.7758 34.1708 88.678 34.665 88.5746L35.8834 88.3045L37.3489 87.9712L38.5558 87.6666L39.9868 87.2815L41.1823 86.9424L42.5788 86.5172L43.1937 86.3275L44.0443 86.0401L44.5616 85.8677C45.2742 85.6206 45.9868 85.362 46.688 85.0976L47.0731 84.9424C47.6478 84.7126 48.2512 84.4769 48.8317 84.2298C49.0098 84.1551 49.188 84.0861 49.3604 84.0057C50.0443 83.7126 50.7167 83.4309 51.3834 83.0976L51.6133 82.9884C52.188 82.7011 52.7915 82.4137 53.3719 82.1091L53.8834 81.8447C54.5271 81.4999 55.165 81.1551 55.7857 80.793C56.0213 80.6551 56.257 80.5172 56.4869 80.3735C56.9064 80.1263 57.3144 79.8677 57.7167 79.6091L57.9351 79.4712C58.5098 79.0919 59.0846 78.7126 59.6248 78.3217L59.8087 78.1896C60.3547 77.793 60.8892 77.3965 61.4006 76.9942L61.5443 76.8735C62.0616 76.4654 62.5616 76.0516 63.0443 75.6263L63.1535 75.5286C63.3604 75.3505 63.5616 75.1666 63.7627 74.9827C63.9639 74.7988 64.1938 74.5689 64.4064 74.362C64.4869 74.293 64.5616 74.2183 64.6363 74.1436C65.0558 73.7298 65.4524 73.316 65.8374 72.8965L66.1075 72.5976C66.4294 72.2355 66.7397 71.8677 67.0386 71.4999L67.2397 71.2585L67.3259 71.1493C67.6305 70.7643 67.9006 70.3677 68.1995 69.9999L68.3719 69.7528C68.6708 69.3217 68.9466 68.885 69.2225 68.4482C69.2627 68.3792 69.3029 68.3045 69.3489 68.2355L69.642 67.7413C69.8029 67.4539 69.9581 67.1666 70.1018 66.8735L70.1535 66.7758C70.4007 66.293 70.6248 65.8045 70.8317 65.316C70.9466 65.0401 71.0558 64.7643 71.1593 64.4884C71.2397 64.27 71.3202 64.0516 71.3949 63.8275C71.4019 63.7979 71.4115 63.7691 71.4236 63.7413C71.5846 63.2585 71.7282 62.77 71.8489 62.2872L71.8834 62.1551C71.9581 61.8562 72.0271 61.5516 72.0903 61.2528C72.1248 61.0804 72.1535 60.9022 72.1823 60.724C72.1946 60.6709 72.2042 60.6172 72.211 60.5631C72.2915 60.0918 72.3489 59.6206 72.3891 59.1493V58.9597C72.4179 58.6263 72.4409 58.293 72.4466 57.9539C72.4466 57.7873 72.4466 57.6206 72.4466 57.4482L72.5788 34.0286Z" fill="#155FCC" stroke="black" stroke-miterlimit="10"/>
<path d="M72.5741 34.0079C72.6255 15.6238 46.9364 0.64879 15.196 0.560154C-16.5444 0.471518 -42.3166 15.3029 -42.368 33.6869C-42.4193 52.0709 -16.7303 67.046 15.0101 67.1346C46.7505 67.2232 72.5228 52.3919 72.5741 34.0079Z" fill="#206BEF" stroke="black" stroke-miterlimit="10"/>
</svg>
