<svg width="129" height="96" viewBox="0 0 129 96" fill="none" xmlns="http://www.w3.org/2000/svg">
<path d="M127.457 62.2955C127.508 43.9114 101.819 28.9364 70.0788 28.8478C38.3385 28.7591 12.5662 43.5905 12.5148 61.9745C12.4635 80.3585 38.1525 95.3336 69.8929 95.4222C101.633 95.5108 127.406 80.6795 127.457 62.2955Z" fill="black" stroke="black" stroke-linecap="round" stroke-linejoin="round"/>
<path d="M115.568 33.9999C115.568 34.5057 115.568 35.0114 115.505 35.5114V35.7011C115.459 36.1723 115.402 36.6436 115.327 37.1149C115.315 37.168 115.305 37.2217 115.298 37.2758C115.212 37.7528 115.114 38.2298 114.999 38.7068L114.965 38.8332C114.838 39.3218 114.7 39.8045 114.54 40.293L114.505 40.3792C114.338 40.8792 114.149 41.3792 113.93 41.8735C113.723 42.362 113.494 42.8505 113.252 43.3332L113.2 43.4309C112.965 43.8907 112.712 44.339 112.442 44.793C112.402 44.862 112.361 44.9367 112.315 45.0057C112.051 45.4424 111.741 45.8792 111.465 46.3103L111.298 46.5574C110.994 46.9884 110.672 47.4137 110.333 47.839L110.137 48.0804C109.838 48.4482 109.528 48.816 109.2 49.1781L108.936 49.4769C108.551 49.8965 108.154 50.3103 107.735 50.7241L107.505 50.9482C107.097 51.339 106.683 51.7298 106.246 52.0976L106.143 52.1953C105.66 52.6206 105.16 53.0344 104.643 53.4424L104.494 53.5631C103.982 53.9654 103.453 54.362 102.902 54.7585L102.718 54.8907C102.172 55.2758 101.608 55.6551 101.028 56.0401L100.815 56.1781C100.189 56.5804 99.5453 56.9712 98.8843 57.362C98.2234 57.7528 97.62 58.0689 96.9763 58.4137L96.4706 58.6781C95.8958 58.9769 95.3211 59.2528 94.7062 59.5574L94.4763 59.6666C93.8154 59.9827 93.1372 60.2815 92.4591 60.5746L91.9303 60.7988C91.3556 61.0459 90.7809 61.2815 90.1659 61.5114L89.7809 61.6666C89.0855 61.9309 88.3728 62.1896 87.6545 62.4367L87.1372 62.6091C86.6545 62.7758 86.1659 62.9309 85.6774 63.0861L84.2751 63.5114L83.0855 63.8505L81.6545 64.2355L80.4476 64.5401L78.982 64.8735L77.7637 65.1436C77.2637 65.247 76.7637 65.3447 76.2579 65.4367L74.9188 65.6896L74.3096 65.793C73.62 65.908 72.9303 66.0172 72.2349 66.1149L71.8901 66.1666C71.1027 66.2815 70.3039 66.3792 69.5108 66.4712L68.9361 66.5344C68.4418 66.5919 67.9476 66.6378 67.4533 66.6838L65.6027 66.8332L64.4533 66.9137C63.8096 66.9539 63.1602 66.9884 62.5165 67.0114L61.4246 67.0574C60.8499 67.0574 60.3096 67.0574 59.7464 67.0919H58.597C58.0223 67.0919 57.3958 67.0919 56.7981 67.0919C56.4476 67.0919 56.0912 67.0919 55.7407 67.0919L54.0912 67.0286L52.9418 66.9769C52.3671 66.9482 51.7579 66.9022 51.166 66.8562C50.8326 66.8562 50.4935 66.816 50.1602 66.7873C49.4533 66.7298 48.7522 66.6551 48.0453 66.5861L47.3901 66.5171C46.4763 66.4194 45.5568 66.2988 44.6487 66.1723L44.2062 66.1034C43.4246 65.9884 42.643 65.8677 41.8671 65.7355L40.9016 65.5516L39.1257 65.2183L38.2062 65.0172L36.2694 64.5804L35.2062 64.3103C34.6315 64.1608 34.0568 64.0114 33.4821 63.8505L31.9993 63.4252L31.4246 63.2585C30.6889 63.0344 29.9533 62.7988 29.2292 62.5516L28.8154 62.408C28.2407 62.2011 27.62 61.9827 27.028 61.7643L26.4246 61.5344L25.0338 60.9597C24.7119 60.8275 24.3958 60.7011 24.0797 60.5631C23.6315 60.3735 23.1889 60.1723 22.7464 59.9884C22.4533 59.8562 22.1717 59.7298 21.8728 59.5919C21.3843 59.362 20.9131 59.1206 20.4418 58.885C20.2004 58.7643 19.9648 58.6493 19.7292 58.5229C19.028 58.1551 18.3384 57.7815 17.6602 57.3735C6.27515 50.8562 0.625719 42.27 0.625719 33.6953L0.5625 57.1206C0.5625 65.6953 6.19469 74.2815 17.528 80.8218C18.2062 81.2183 18.8958 81.5919 19.597 81.9712C19.8326 82.0976 20.074 82.2126 20.3096 82.3275C20.7809 82.5689 21.2579 82.8102 21.7407 83.0401C22.028 83.1781 22.3154 83.3045 22.6142 83.4367C23.0568 83.6378 23.4993 83.8447 23.9476 84.0114C24.2636 84.1493 24.5855 84.2758 24.9016 84.408C25.2177 84.5401 25.5108 84.6666 25.8211 84.7873L26.2981 84.9712L26.8729 85.1953C27.4476 85.4194 28.0625 85.6378 28.6602 85.8447L29.074 85.9884C29.8039 86.2355 30.5338 86.4712 31.2694 86.6953L31.8441 86.862L32.7981 87.1436L33.3269 87.2873L35.051 87.747L36.12 88.0114C36.7579 88.1666 37.4073 88.3103 38.051 88.4482L38.7752 88.6149L38.9706 88.6493C39.5453 88.77 40.1545 88.8792 40.7464 88.9884L41.7177 89.1723C42.4935 89.3045 43.2694 89.4252 44.051 89.5402L44.4763 89.6034C45.3901 89.7298 46.3039 89.8447 47.2234 89.9482L47.8786 90.0114C48.5797 90.0861 49.2867 90.1608 49.9878 90.2183H50.0453L50.9993 90.2815C51.574 90.3275 52.1832 90.3735 52.7751 90.4022C53.1545 90.4022 53.5395 90.4367 53.9246 90.4482C54.4705 90.4769 55.0223 90.4999 55.5683 90.5172H56.6315C57.2062 90.5172 57.8269 90.5172 58.4246 90.5172H59.6027C60.1774 90.5172 60.7234 90.5172 61.2809 90.4827H61.5912L62.3729 90.4424C63.0165 90.4424 63.6602 90.385 64.3039 90.3447L65.4533 90.2643C66.074 90.2183 66.6889 90.1666 67.3039 90.1091C67.5223 90.1091 67.7407 90.0804 67.9533 90.0574L68.7866 89.9654L69.3614 89.9022C70.1602 89.8103 70.9533 89.7126 71.7464 89.5976L72.0912 89.5459C72.7867 89.4482 73.4763 89.339 74.1659 89.224L74.7751 89.1206L75.2579 89.0344L76.1142 88.8677C76.6142 88.7758 77.12 88.6781 77.6142 88.5746L78.8326 88.3045C79.3269 88.1953 79.8154 88.0861 80.2981 87.9654L81.505 87.6608C81.9878 87.5421 82.4648 87.4156 82.9361 87.2815L84.1315 86.9424L85.528 86.5114L86.143 86.3275L86.9935 86.0401L87.5108 85.8677C88.2234 85.6206 88.9361 85.362 89.6372 85.0919L90.0223 84.9425C90.597 84.7126 91.2004 84.4769 91.7809 84.2298L92.3096 84.0057C92.9935 83.7126 93.6659 83.4309 94.3326 83.0976L94.5625 82.9827C95.1372 82.7011 95.7407 82.408 96.3211 82.1091L96.8326 81.839C97.4763 81.4999 98.1142 81.1493 98.7349 80.7873C98.9706 80.6551 99.2062 80.5172 99.4361 80.3735C99.8556 80.1206 100.264 79.8677 100.666 79.6091L100.884 79.4654C101.467 79.0823 102.03 78.6991 102.574 78.316L102.758 78.1838C103.304 77.7873 103.838 77.3907 104.35 76.9884L104.494 76.8677C105.011 76.4597 105.511 76.0401 105.994 75.6206L106.103 75.5229C106.31 75.3447 106.511 75.1608 106.712 74.9769C106.913 74.793 107.143 74.5631 107.356 74.3562L107.591 74.1378C108.005 73.724 108.402 73.3103 108.787 72.8907L109.057 72.5919C109.379 72.224 109.689 71.862 109.988 71.4942L110.189 71.2528L110.275 71.1436C110.58 70.7528 110.85 70.362 111.149 69.9942L111.321 69.747C111.62 69.316 111.896 68.8792 112.172 68.4424C112.212 68.3677 112.252 68.2988 112.298 68.2298L112.591 67.7298C112.752 67.4482 112.907 67.1551 113.057 66.8677C113.069 66.8336 113.084 66.8009 113.103 66.77C113.35 66.2873 113.574 65.7988 113.781 65.3103C113.896 65.0344 114.005 64.7585 114.108 64.4827C114.189 64.2643 114.269 64.0401 114.344 63.8218C114.352 63.7906 114.361 63.7599 114.373 63.7298C114.534 63.247 114.677 62.7643 114.798 62.2815L114.833 62.1493C114.907 61.8505 114.976 61.5459 115.04 61.247C115.074 61.0689 115.103 60.8965 115.131 60.7183C115.144 60.6634 115.154 60.6077 115.16 60.5516C115.241 60.0861 115.298 59.6149 115.338 59.1436V58.9539C115.338 58.6206 115.39 58.2815 115.396 57.9482C115.396 57.7815 115.396 57.6149 115.396 57.4424L115.568 33.9999Z" fill="#E54823" stroke="black" stroke-miterlimit="10"/>
<path d="M115.574 34.0154C115.625 15.6314 89.9364 0.656343 58.196 0.567707C26.4556 0.479071 0.683356 15.3104 0.632018 33.6945C0.58068 52.0785 26.2697 67.0535 58.0101 67.1422C89.7505 67.2308 115.523 52.3995 115.574 34.0154Z" fill="#FF6339" stroke="black" stroke-miterlimit="10"/>
</svg>
