<svg width="227" height="144" viewBox="0 0 227 144" fill="none" xmlns="http://www.w3.org/2000/svg">
<g clip-path="url(#clip0_274_3021)">
<path d="M216.404 112.401C228.677 119.486 228.746 130.976 216.555 138.086C204.363 145.196 184.523 145.171 172.251 138.086L38.9257 61.0867C26.6532 54.0014 26.5906 42.512 38.7817 35.4015C50.9727 28.2911 70.8068 28.3162 83.0793 35.4015L216.404 112.401Z" fill="black" stroke="black" stroke-linecap="round" stroke-linejoin="round"/>
<path d="M196.609 96.3882C196.609 96.5449 196.609 96.7015 196.609 96.8581C196.609 97.0147 196.609 97.1338 196.559 97.2716L196.484 97.7414C196.484 97.8793 196.428 98.0171 196.396 98.1549C196.365 98.2927 196.327 98.4619 196.284 98.6122C196.24 98.7626 196.208 98.8879 196.165 99.0257C196.121 99.1635 196.071 99.3326 196.014 99.483L195.864 99.8839C195.801 100.041 195.732 100.203 195.663 100.36L195.475 100.755C195.4 100.911 195.319 101.068 195.237 101.225L195.024 101.607C194.912 101.788 194.799 101.976 194.68 102.158L194.461 102.496C194.323 102.697 194.172 102.904 194.016 103.123L193.822 103.386C193.571 103.705 193.295 104.012 193.007 104.332C192.938 104.413 192.857 104.488 192.782 104.57C192.556 104.808 192.318 105.046 192.074 105.278C191.961 105.384 191.848 105.491 191.729 105.591L191.278 105.986L190.846 106.349L190.357 106.731L189.887 107.082C189.718 107.207 189.537 107.326 189.361 107.452L188.86 107.79L188.296 108.147L187.569 108.592C187.1 108.868 186.617 109.124 186.129 109.375L185.696 109.588C185.32 109.776 184.932 109.958 184.537 110.133L184.143 110.315C183.629 110.534 183.109 110.747 182.583 110.941L182.295 111.048C181.85 111.21 181.399 111.373 180.941 111.524L180.371 111.705L179.607 111.937L178.981 112.125L178.204 112.332L177.577 112.501L176.775 112.683L176.111 112.827L175.297 112.99L174.67 113.109C174.082 113.209 173.493 113.309 172.898 113.391H172.647L171.087 113.579L170.461 113.635C170.129 113.666 169.79 113.698 169.458 113.716L168.832 113.767L167.779 113.817H167.153H166.238H164.622H164.039H163.15H162.523L161.577 113.748L161.007 113.71C160.627 113.681 160.245 113.643 159.861 113.597H159.504C159.003 113.541 158.501 113.478 158.006 113.403L157.743 113.366C157.324 113.303 156.904 113.24 156.49 113.165L155.952 113.065C155.632 113.008 155.325 112.952 154.993 112.883L154.492 112.777L153.439 112.539L152.857 112.388L151.911 112.138L151.372 111.987C150.871 111.843 150.376 111.687 149.887 111.524L149.631 111.442C149.073 111.254 148.522 111.048 147.977 110.816C147.751 110.734 147.532 110.64 147.313 110.553L146.799 110.34C146.548 110.233 146.31 110.12 146.066 110.008C145.822 109.895 145.746 109.87 145.596 109.795C145.327 109.669 145.07 109.538 144.813 109.406C144.681 109.344 144.55 109.281 144.425 109.212C144.04 109.012 143.665 108.803 143.297 108.586L9.90933 31.5989C6.4387 29.5942 3.93909 27.2136 2.39171 24.7077C2.06159 24.1642 1.77261 23.5967 1.52718 23.01C1.29116 22.4492 1.09845 21.8712 0.950803 21.281C0.738987 20.4242 0.631701 19.5449 0.631298 18.6624L0.59375 31.4297C0.59375 36.1032 3.66972 40.7829 9.84043 44.3476L143.184 121.34C143.552 121.553 143.928 121.762 144.312 121.967L144.7 122.161L145.483 122.55L145.959 122.769L146.686 123.095L147.206 123.308L147.701 123.514L147.864 123.571C148.409 123.784 148.96 123.984 149.518 124.197L149.781 124.279C150.27 124.442 150.764 124.598 151.259 124.742L151.504 124.817L151.792 124.893L152.75 125.143L153.327 125.293L154.379 125.532L154.774 125.619H154.88L155.851 125.807L156.378 125.901C156.804 125.976 157.23 126.039 157.631 126.102L157.856 126.139C158.351 126.208 158.852 126.277 159.353 126.333L159.698 126.365L160.863 126.478L161.377 126.515C161.703 126.515 162.003 126.565 162.354 126.578L162.981 126.609H163.876H166.075H166.99H167.159C167.303 126.609 167.441 126.609 167.585 126.609L168.638 126.553L169.264 126.509L170.273 126.427H170.624H170.868C171.388 126.371 171.914 126.308 172.428 126.239H172.678C173.305 126.158 173.869 126.058 174.451 125.958H174.62L175.084 125.864L175.905 125.701L176.562 125.557L177.364 125.375L177.991 125.206L178.774 124.999L179.4 124.811L180.165 124.579L180.497 124.479L180.735 124.398C181.192 124.247 181.643 124.084 182.094 123.922L182.376 123.815C182.902 123.615 183.422 123.402 183.936 123.189L184.331 123.007C184.723 122.832 185.112 122.65 185.496 122.462L185.922 122.249C186.41 121.998 186.893 121.741 187.363 121.466L187.745 121.24C187.864 121.171 187.97 121.096 188.089 121.021L188.653 120.664L189.154 120.326L189.687 119.956L190.15 119.605L190.639 119.223C190.79 119.104 190.927 118.985 191.071 118.86L191.523 118.465L191.71 118.302L191.867 118.152C192.111 117.92 192.349 117.682 192.575 117.444L192.807 117.206C193.089 116.893 193.364 116.579 193.615 116.26L193.653 116.216C193.709 116.141 193.759 116.066 193.815 115.997C193.966 115.796 194.116 115.59 194.254 115.37C194.392 115.151 194.404 115.145 194.473 115.032C194.542 114.919 194.711 114.662 194.818 114.481L194.912 114.324C194.955 114.249 194.987 114.174 195.031 114.099C195.075 114.023 195.194 113.785 195.269 113.629C195.344 113.472 195.394 113.366 195.457 113.234C195.519 113.102 195.595 112.914 195.657 112.758C195.72 112.601 195.72 112.62 195.745 112.545C195.77 112.47 195.789 112.42 195.808 112.357C195.826 112.294 195.914 112.05 195.958 111.9C196.002 111.749 196.046 111.624 196.083 111.486C196.121 111.348 196.158 111.185 196.19 111.029C196.221 110.872 196.234 110.866 196.252 110.785C196.271 110.703 196.252 110.672 196.252 110.615C196.252 110.459 196.302 110.302 196.327 110.146C196.353 109.989 196.365 109.87 196.378 109.732C196.39 109.594 196.378 109.419 196.415 109.262C196.453 109.106 196.415 109.081 196.415 108.987V108.711L196.453 95.9435C196.634 96.0187 196.622 96.2066 196.609 96.3882Z" fill="#FFD3BD" stroke="black" stroke-linecap="round" stroke-linejoin="round"/>
<path d="M187.389 82.9192C199.661 89.9983 199.73 101.488 187.539 108.573C175.348 115.658 155.508 115.658 143.235 108.573L9.91011 31.5989C-2.3624 24.5136 -2.42504 13.0242 9.76603 5.91375C21.9571 -1.19666 41.7911 -1.17161 54.0636 5.91375L187.389 82.9192Z" fill="#FFF7F3" stroke="black" stroke-linecap="round" stroke-linejoin="round"/>
</g>
<defs>
<clipPath id="clip0_274_3021">
<rect width="226.28" height="144" fill="white"/>
</clipPath>
</defs>
</svg>
