<svg width="223" height="144" viewBox="0 0 223 144" fill="none" xmlns="http://www.w3.org/2000/svg">
<g clip-path="url(#clip0_274_3019)">
<path d="M220.678 53.6444C222.726 54.8228 222.735 56.738 220.703 57.9164L178.234 82.586C176.202 83.7643 176.214 85.6796 178.258 86.8621L220.986 111.528C223.03 112.71 223.039 114.621 220.986 115.804L174.707 142.697C172.679 143.875 169.373 143.879 167.325 142.697L124.622 118.031C122.578 116.849 119.272 116.849 117.24 118.031L74.7958 142.697C72.764 143.879 69.458 143.879 67.4137 142.697L20.8224 115.804C18.778 114.621 18.7655 112.71 20.7974 111.528L63.2459 86.8621C65.2777 85.6796 65.2652 83.7685 63.2209 82.586L20.5059 57.9205C18.4574 56.738 18.4533 54.8228 20.481 53.6444L66.76 26.7472C68.7919 25.5647 72.0978 25.5647 74.1421 26.7472L116.865 51.4169C118.914 52.5952 122.216 52.5952 124.248 51.4169L166.696 26.7472C168.728 25.5647 172.03 25.5647 174.074 26.7472L220.678 53.6444Z" fill="black" stroke="black" stroke-linecap="round" stroke-linejoin="round"/>
<path d="M203.683 30.5029C203.683 30.5571 203.683 30.6112 203.683 30.6695C203.683 30.7278 203.662 30.7569 203.649 30.8027C203.626 30.9004 203.593 30.9954 203.549 31.0859C203.528 31.1415 203.503 31.1957 203.475 31.2482C203.454 31.2857 203.429 31.3232 203.404 31.3607C203.367 31.4242 203.327 31.4854 203.283 31.5439L203.2 31.648C203.131 31.7324 203.057 31.8131 202.979 31.8895L202.892 31.9727C202.842 32.0185 202.783 32.0601 202.729 32.1059L202.584 32.2225L202.396 32.3474L202.196 32.4723L159.752 57.142L159.685 57.1795L159.552 57.2669C159.49 57.3086 159.423 57.3502 159.365 57.396C159.306 57.4418 159.265 57.4709 159.219 57.5084C159.173 57.5459 159.107 57.5958 159.057 57.6416L159.023 57.6666C159.008 57.688 158.989 57.7076 158.969 57.7249C158.891 57.8013 158.818 57.8819 158.749 57.9664L158.703 58.0164C158.689 58.0334 158.676 58.0515 158.665 58.0705C158.621 58.129 158.581 58.1902 158.545 58.2537L158.49 58.3287C158.489 58.3411 158.489 58.3537 158.49 58.3661C158.462 58.4186 158.437 58.4728 158.415 58.5285L158.37 58.6243V58.6576C158.351 58.7077 158.335 58.7592 158.324 58.8116C158.312 58.8472 158.302 58.8833 158.295 58.9199C158.293 58.9281 158.293 58.9367 158.295 58.9449C158.295 59.0032 158.295 59.0573 158.295 59.1114C158.297 59.1475 158.297 59.1836 158.295 59.2197V59.2613L158.253 74.0298C158.253 73.9798 158.253 73.9257 158.253 73.8757C158.249 73.8217 158.249 73.7674 158.253 73.7134C158.262 73.6684 158.273 73.6239 158.286 73.5801C158.298 73.5263 158.313 73.4735 158.332 73.4219C158.332 73.3803 158.365 73.3386 158.382 73.297C158.399 73.2554 158.432 73.1887 158.461 73.1346C158.482 73.0943 158.506 73.0554 158.532 73.018C158.57 72.9556 158.607 72.8973 158.653 72.8348L158.736 72.7307C158.803 72.6516 158.878 72.5725 158.957 72.4934L159.044 72.406L159.207 72.2769C159.252 72.2348 159.301 72.1958 159.352 72.1603L159.54 72.0354L159.74 71.9063L202.184 47.2408L202.25 47.2034L202.384 47.1118L202.571 46.9869C202.621 46.9494 202.671 46.9119 202.717 46.8703C202.763 46.8286 202.829 46.7828 202.879 46.737L202.908 46.7121L202.962 46.6538C203.046 46.5746 203.116 46.4956 203.187 46.4164C203.204 46.3993 203.219 46.3812 203.233 46.3623L203.27 46.3124C203.316 46.2499 203.354 46.1916 203.391 46.1292L203.445 46.0542C203.443 46.0404 203.443 46.0263 203.445 46.0126C203.474 45.9601 203.499 45.9058 203.52 45.8502C203.537 45.8191 203.553 45.7871 203.566 45.7544C203.566 45.7544 203.566 45.7336 203.566 45.7253C203.585 45.6737 203.601 45.6208 203.612 45.567C203.624 45.5329 203.633 45.4982 203.641 45.463C203.643 45.4533 203.643 45.4434 203.641 45.4338C203.641 45.3797 203.641 45.3256 203.641 45.2714C203.641 45.2173 203.641 45.2007 203.641 45.1632C203.643 45.148 203.643 45.1326 203.641 45.1174L203.683 30.3447C203.695 30.403 203.687 30.453 203.683 30.5029Z" fill="#FFECE1" stroke="black" stroke-linecap="round" stroke-linejoin="round"/>
<path d="M44.7234 57.1419L2.00015 32.4556C0.97173 31.8643 0.455457 31.0857 0.459621 30.3071L0.417969 45.0756C0.417969 45.8542 0.930103 46.6328 1.95853 47.2282L44.6818 71.9104C45.7102 72.5058 46.2265 73.2844 46.2223 74.063L46.264 59.2945C46.2681 58.5159 45.7519 57.7373 44.7234 57.1419Z" fill="#FFECE1" stroke="black" stroke-linecap="round" stroke-linejoin="round"/>
<path d="M204.024 88.3861C204.029 88.4415 204.029 88.4972 204.024 88.5526C204.024 88.5984 204.003 88.64 203.991 88.6858C203.979 88.7316 203.966 88.7899 203.949 88.8399C203.933 88.8899 203.912 88.9273 203.895 88.969C203.879 89.0106 203.845 89.0772 203.816 89.1314L203.749 89.2479C203.708 89.3104 203.67 89.3687 203.625 89.4311L203.541 89.5352C203.475 89.6143 203.4 89.6934 203.321 89.7725L203.233 89.8558C203.182 89.9035 203.128 89.948 203.071 89.9891C203.025 90.0312 202.976 90.0701 202.925 90.1057L202.738 90.2306L202.542 90.3596L156.259 117.253C156.1 117.346 155.936 117.429 155.768 117.503L155.618 117.565C155.482 117.623 155.343 117.675 155.201 117.719L155.051 117.773L154.781 117.848L154.577 117.902L154.289 117.965L154.09 118.006C153.898 118.04 153.698 118.069 153.498 118.09H153.311H152.957H152.732H152.445H152.208H151.941L151.7 118.069L151.441 118.04L151.208 118.006L150.929 117.96L150.713 117.915L150.388 117.836L150.213 117.79C150.018 117.732 149.834 117.669 149.651 117.598C149.56 117.565 149.476 117.527 149.389 117.486L149.251 117.428C149.122 117.365 148.993 117.298 148.868 117.228L106.116 92.5872C105.991 92.5164 105.866 92.4498 105.733 92.3873L105.6 92.329L105.362 92.2249H105.333C105.154 92.1542 104.967 92.0917 104.775 92.0334H104.729L104.596 92.0001C104.488 91.971 104.38 91.9418 104.271 91.921H104.184L104.055 91.896L103.78 91.8502H103.668H103.543L103.285 91.8211H103.16H103.043H102.781H102.648H102.111H102.027H101.677H101.532H101.49C101.29 91.8419 101.074 91.871 100.899 91.9044H100.87C100.811 91.9044 100.757 91.9293 100.699 91.9418L100.412 92.0001L100.208 92.0584C100.116 92.0834 100.025 92.1042 99.9371 92.1334H99.8788L99.7872 92.1666C99.6498 92.2166 99.5124 92.2666 99.3708 92.3249L99.2209 92.3873C99.0522 92.4605 98.8882 92.544 98.7296 92.6371L56.2603 117.303C56.1009 117.394 55.9369 117.478 55.769 117.552L55.6191 117.619C55.4859 117.673 55.3485 117.723 55.2028 117.773L55.0529 117.823L54.7864 117.902L54.5782 117.956L54.2909 118.019L54.0952 118.056C53.8995 118.094 53.6789 118.119 53.4998 118.14H53.3166L52.9627 118.165H52.2133H51.9468H51.7053L51.4472 118.135L51.214 118.102L50.935 118.052L50.7185 118.01L50.3979 117.927L50.2189 117.881C50.0273 117.823 49.84 117.761 49.6568 117.694L49.3903 117.577L49.2571 117.519C49.128 117.457 48.9989 117.394 48.874 117.319L2.32437 90.3596C1.66678 90.029 1.15287 89.4692 0.87957 88.7858C0.815132 88.5997 0.782759 88.404 0.783814 88.207L0.742188 102.976C0.742188 103.754 1.2543 104.537 2.28272 105.128L48.8657 132.025C48.9906 132.096 49.1197 132.163 49.2488 132.225L49.3861 132.283L49.6193 132.388H49.6485C49.8317 132.46 50.019 132.522 50.2106 132.575H50.2522L50.3896 132.608L50.7102 132.687L50.7976 132.708H50.9267C51.0183 132.729 51.1099 132.746 51.2057 132.758H51.3139H51.4388L51.697 132.787H51.8219H51.9385H52.2049H52.3382H52.9544L53.3083 132.762H53.4499H53.4915C53.6914 132.762 53.9079 132.712 54.0869 132.679H54.1327L54.2993 132.642L54.5866 132.579L54.7948 132.525L55.0612 132.45H55.1195L55.2111 132.413C55.3527 132.367 55.4901 132.313 55.6275 132.258L55.7732 132.196C55.9439 132.117 56.1105 132.038 56.2687 131.946L98.6838 107.356C98.8432 107.264 99.0072 107.181 99.1751 107.106L99.325 107.043C99.4583 106.989 99.5915 106.935 99.7414 106.889L99.8913 106.835L100.158 106.76L100.366 106.706L100.653 106.644L100.853 106.602C101.045 106.569 101.244 106.544 101.444 106.523H101.632L101.981 106.498H102.494H102.731H102.997H103.239L103.497 106.527L103.734 106.56L104.009 106.61L104.226 106.652L104.55 106.731L104.729 106.781C104.918 106.834 105.105 106.897 105.287 106.968L105.554 107.081L105.687 107.139C105.82 107.202 105.945 107.268 106.07 107.339L148.793 132.009C148.918 132.079 149.047 132.146 149.176 132.209L149.314 132.267C149.389 132.3 149.468 132.338 149.547 132.367H149.576C149.759 132.439 149.945 132.501 150.134 132.554H150.18L150.317 132.587L150.638 132.667L150.725 132.687H150.854L151.133 132.737H151.242H151.367L151.625 132.766H151.75H151.866H152.133H152.266H152.882L153.236 132.741H153.378H153.423C153.623 132.741 153.84 132.696 154.019 132.658H154.044L154.21 132.625L154.502 132.562L154.706 132.508L154.976 132.429H155.035L155.126 132.396L155.543 132.242L155.693 132.175C155.863 132.1 156.026 132.017 156.184 131.93L202.467 105.032L202.53 104.995L202.663 104.903C202.725 104.862 202.792 104.824 202.85 104.778C202.908 104.733 202.95 104.703 202.996 104.666C203.042 104.628 203.108 104.579 203.158 104.533L203.192 104.504C203.211 104.485 203.229 104.466 203.246 104.445C203.325 104.371 203.398 104.292 203.466 104.208L203.512 104.158C203.526 104.141 203.539 104.123 203.55 104.104C203.595 104.046 203.633 103.983 203.675 103.921C203.69 103.895 203.706 103.87 203.725 103.846C203.727 103.832 203.727 103.818 203.725 103.804C203.754 103.754 203.779 103.696 203.804 103.642L203.845 103.55V103.517C203.845 103.463 203.874 103.413 203.887 103.359C203.899 103.304 203.912 103.292 203.92 103.254V103.225C203.924 103.171 203.924 103.117 203.92 103.063V102.955V102.909L204.024 88.2487C204.024 88.2861 204.024 88.3361 204.024 88.3861Z" fill="#FFD3BD" stroke="black" stroke-linecap="round" stroke-linejoin="round"/>
<path d="M202.157 28.2004C204.202 29.3787 204.21 31.294 202.157 32.4723L159.713 57.1419C157.681 58.3202 157.689 60.2355 159.734 61.4138L202.461 86.0835C204.506 87.266 204.518 89.1771 202.486 90.3596L156.203 117.253C154.175 118.431 150.869 118.435 148.821 117.253L106.118 92.5871C104.074 91.4046 100.772 91.4046 98.7404 92.5871L56.2711 117.253C54.2393 118.435 50.9375 118.435 48.889 117.253L2.32681 90.3596C0.282452 89.1771 0.269962 87.266 2.30183 86.0835L44.7711 61.418C46.803 60.2355 46.7905 58.3244 44.7461 57.1419L2.00203 32.4556C-0.0464889 31.2773 -0.0506515 29.362 1.97705 28.1837L48.2602 1.28652C50.2921 0.104039 53.5939 0.104039 55.6382 1.28652L98.3657 25.9562C100.41 27.1345 103.712 27.1345 105.744 25.9562L148.213 1.28652C150.245 0.104039 153.547 0.104039 155.591 1.28652L202.157 28.2004Z" fill="#FFF7F3" stroke="black" stroke-linecap="round" stroke-linejoin="round"/>
</g>
<defs>
<clipPath id="clip0_274_3019">
<rect width="222.943" height="144" fill="white"/>
</clipPath>
</defs>
</svg>
