<svg width="166" height="69" viewBox="0 0 166 69" fill="none" xmlns="http://www.w3.org/2000/svg">
<path d="M15 62V69H22L15 62Z" fill="#D65A01"/>
<path d="M29 13V6H22L29 13Z" fill="#3801D6"/>
<circle cx="38.5" cy="50.5" r="3.5" fill="#FF66DD"/>
<circle cx="119.5" cy="20.5" r="3.5" fill="#3801D6"/>
<circle cx="94.5" cy="19.5" r="3.5" fill="#FF66DD"/>
<circle cx="59.5" cy="27.5" r="2.5" fill="#111111"/>
<path d="M73 7L78 11L79 4L75 0L73 7Z" fill="#4ED6AD"/>
<path d="M148 15L143 19L142 12L146 8L148 15Z" fill="#4ED6AD"/>
<path d="M47.3686 20.5778L50.6989 26.0467L54.0328 19.8109L51.6421 14.684L47.3686 20.5778Z" fill="#FFA800"/>
<path d="M135.032 44.5778L131.701 50.0467L128.368 43.8109L130.758 38.684L135.032 44.5778Z" fill="#D65A01"/>
<path d="M157.369 31.8109L160.699 26.3421L164.033 32.5779L161.642 37.7048L157.369 31.8109Z" fill="black"/>
<path d="M2.39414 39.63L8.46068 41.6786L7.00624 34.7588L1.87939 32.3681L2.39414 39.63Z" fill="#D65A01"/>
</svg>
