<svg xmlns="http://www.w3.org/2000/svg" width="160" height="68" viewBox="0 0 366.747 68.377"><defs><clipPath id="clip-path"><rect id="Rectangle_13" data-name="Rectangle 13" width="366.747" height="68.377" transform="translate(0 0)" fill="none"></rect></clipPath></defs><g id="Group_16" data-name="Group 16" transform="translate(0 0)"><g id="Group_15" data-name="Group 15" clip-path="url(#clip-path)"><path id="Path_23" data-name="Path 23" d="M20.6,2H2V20.738H20.6ZM39.2,2H20.6V20.738H39.2ZM20.6,20.734H2V39.472H20.6Zm0,18.738H2V58.21H20.6ZM39.2,20.734H20.6V39.472H39.2ZM57.808,2H39.2V20.738h18.6ZM20.6,58.211l8.58,8.166V47.638M39.2,39.472l8.58,8.167V28.905M39.2,20.734l8.58,8.171h18.6M57.809,2l8.581,8.167V28.905l-8.581-8.171m-10.024,26.9H29.18L20.6,39.472m8.58,26.9H10.575L2,58.211" fill="none" stroke="black" stroke-width="3" stroke-linejoin="round"></path><path id="Path_24" data-name="Path 24" d="M113.885,17.892v5.376H99.629V32.34h11.424v5.184H99.629V51.78H92.861V17.892Zm11.338,12.384a10.931,10.931,0,0,1,3.936-3.984,10.328,10.328,0,0,1,5.472-1.488v7.248h-1.968q-7.44,0-7.44,6.912V51.78h-6.768V25.188h6.768Zm23.57-5.424a10.219,10.219,0,0,1,5.76,1.584,8.627,8.627,0,0,1,3.408,4.272v-5.52h6.72V51.78h-6.72V46.212a8.884,8.884,0,0,1-3.408,4.32,10.219,10.219,0,0,1-5.76,1.584,11.423,11.423,0,0,1-6.048-1.632,11.207,11.207,0,0,1-4.224-4.7,16.779,16.779,0,0,1-1.488-7.3,16.463,16.463,0,0,1,1.488-7.248,11.151,11.151,0,0,1,4.224-4.752,11.423,11.423,0,0,1,6.048-1.632m2.112,5.9a6.62,6.62,0,0,0-5.088,2.064,7.991,7.991,0,0,0-1.92,5.664,7.991,7.991,0,0,0,1.92,5.664,7.305,7.305,0,0,0,10.128-.048,7.8,7.8,0,0,0,2.016-5.616,7.692,7.692,0,0,0-2.016-5.616,6.583,6.583,0,0,0-5.04-2.112M204.654,24.8a9.86,9.86,0,0,1,7.632,3.024q2.832,2.976,2.832,8.5V51.78H208.4V37.092a6.484,6.484,0,0,0-1.584-4.7,5.5,5.5,0,0,0-4.272-1.68,5.916,5.916,0,0,0-4.512,1.776,7.27,7.27,0,0,0-1.68,5.184V51.78h-6.72V37.092a6.484,6.484,0,0,0-1.584-4.7,5.5,5.5,0,0,0-4.272-1.68,5.916,5.916,0,0,0-4.512,1.776,7.27,7.27,0,0,0-1.68,5.184V51.78h-6.768V25.188h6.768v5.04a8.151,8.151,0,0,1,3.312-3.984,9.841,9.841,0,0,1,5.328-1.44,9.954,9.954,0,0,1,5.568,1.536,9.339,9.339,0,0,1,3.6,4.416,10.078,10.078,0,0,1,9.264-5.952m41.418,12.672a12.813,12.813,0,0,1-.24,2.3H226.344a7.33,7.33,0,0,0,1.92,5.232,6.177,6.177,0,0,0,4.416,1.68,6.3,6.3,0,0,0,3.888-1.152,5.068,5.068,0,0,0,2.016-3.12h7.152a11.442,11.442,0,0,1-2.256,4.992,11.748,11.748,0,0,1-4.464,3.456,14.078,14.078,0,0,1-6,1.248,14.322,14.322,0,0,1-6.912-1.632,11.8,11.8,0,0,1-4.7-4.752,14.881,14.881,0,0,1-1.68-7.248,14.881,14.881,0,0,1,1.68-7.248,11.416,11.416,0,0,1,4.7-4.752,14.322,14.322,0,0,1,6.912-1.632,13.872,13.872,0,0,1,6.864,1.632A11.258,11.258,0,0,1,244.44,31a12.742,12.742,0,0,1,1.632,6.48m-6.816-.672a5.925,5.925,0,0,0-1.728-4.944,6.41,6.41,0,0,0-4.512-1.68,6.648,6.648,0,0,0-4.608,1.68,6.877,6.877,0,0,0-2.064,4.944Zm49.685-11.616L281.789,51.78H274.3l-5.712-19.344L262.733,51.78h-7.488l-7.1-26.592h6.768l4.32,20.544,5.9-20.544h7.152l5.952,20.544,4.368-20.544Zm15.661-.336a14.611,14.611,0,0,1,6.961,1.632,11.87,11.87,0,0,1,4.9,4.752,14.231,14.231,0,0,1,1.776,7.248,14.231,14.231,0,0,1-1.776,7.248,12.275,12.275,0,0,1-4.9,4.752,14.611,14.611,0,0,1-6.961,1.632,14.889,14.889,0,0,1-7.008-1.632,12.357,12.357,0,0,1-4.848-4.752,14.241,14.241,0,0,1-1.776-7.248,14.241,14.241,0,0,1,1.776-7.248,11.943,11.943,0,0,1,4.848-4.752,14.889,14.889,0,0,1,7.008-1.632m0,5.856a6.455,6.455,0,0,0-4.8,2.016,7.806,7.806,0,0,0-1.968,5.76,7.977,7.977,0,0,0,1.968,5.808,6.838,6.838,0,0,0,9.6,0,7.978,7.978,0,0,0,1.968-5.808,7.806,7.806,0,0,0-1.968-5.76,6.453,6.453,0,0,0-4.8-2.016m25.183-.432a10.931,10.931,0,0,1,3.936-3.984,10.328,10.328,0,0,1,5.472-1.488v7.248h-1.968q-7.44,0-7.44,6.912V51.78h-6.768V25.188h6.768Zm28.706,21.5-8.784-11.616V51.78h-6.768V16.26h6.768V36.228l8.736-11.04h8.016L355.275,38.436,366.747,51.78Z" stroke="black" fill="black"></path></g></g></svg>
