<svg width="194" height="32" viewBox="0 0 194 32" fill="none" xmlns="http://www.w3.org/2000/svg">
<g clip-path="url(#clip0_547_1179)">
<path d="M0.5 7.9056V31.6704H5.4888V14.3536H12.076V9.4592H5.4888V8.9408C5.4888 5.8352 6.3352 4.9408 9.1112 4.9408C10.1355 4.93981 11.1583 5.01844 12.1704 5.176V0.3296C10.9114 0.113856 9.63656 0.00360668 8.3592 0C3.324 0 0.5 3.0112 0.5 7.9056Z" fill="black"/>
<path d="M18.8981 12.3297V9.45929H13.9141V31.6705H18.8981V14.2593H25.9573V9.36489C25.4869 9.31689 24.9685 9.31689 24.4981 9.31689C21.9621 9.31689 20.0789 10.4465 18.8981 12.3297Z" fill="black"/>
<path d="M43.2554 12.9408C41.7978 10.4 39.4906 9.12964 36.6202 9.12964C31.6794 9.12964 26.457 12.7056 26.457 20.6592C26.457 28.6128 31.4922 32 36.6202 32C39.5386 32 41.8442 30.824 43.2554 28.376V31.6704H48.2442V9.45924H43.2554V12.9408ZM37.185 27.1056C34.033 27.1056 31.4442 24.8464 31.4442 20.6112C31.4442 16.2816 34.033 13.976 37.185 13.976C40.4794 13.976 43.2554 16.2816 43.2554 20.6112C43.2554 24.8464 40.4794 27.1056 37.185 27.1056Z" fill="black"/>
<path d="M93.413 9.12964C87.2482 9.12964 82.8242 13.0816 82.8242 20.3296C82.8242 27.4816 87.5778 31.8592 94.4946 31.8592C97.2242 31.8592 99.9074 31.624 102.543 31.3888V26.4944C100.002 26.7296 97.5074 26.9648 94.9666 26.9648C91.9538 27.0112 89.6018 25.8352 88.5666 23.3888L103.343 21.3648C103.578 14.0704 99.2946 9.12964 93.413 9.12964ZM88.0482 19.2464C88.4722 15.3888 90.8722 13.8816 93.1778 13.8816C95.813 13.8816 97.413 15.576 97.837 17.8816L88.0482 19.2464Z" fill="black"/>
<path d="M130.922 9.45923L126.781 25.7408L121.04 9.45923H118.403L112.662 25.6464L108.568 9.45923H103.203L109.133 31.6704H115.486L119.722 19.3888L123.91 31.6704H130.31L136.24 9.45923H130.922Z" fill="black"/>
<path d="M146.729 9.12964C140.048 9.12964 135.953 13.8816 135.953 20.6592C135.953 27.4368 140.329 32 146.729 32C153.129 32 157.507 27.4352 157.507 20.6592C157.507 13.8832 153.412 9.12964 146.729 9.12964ZM146.729 27.1056C143.059 27.1056 141.129 24.8464 141.129 20.6112C141.129 16.2816 143.059 14.024 146.729 14.024C150.4 14.024 152.329 16.2816 152.329 20.6112C152.329 24.8464 150.4 27.1056 146.729 27.1056Z" fill="black"/>
<path d="M164.901 12.3297V9.45929H159.914V31.6705H164.901V14.2593H171.96V9.36489C171.49 9.31689 170.973 9.31689 170.501 9.31689C167.96 9.31689 166.079 10.4465 164.901 12.3297Z" fill="black"/>
<path d="M183.832 20.3759L192.819 9.45911H187.267L178.749 19.8111V0.235107H173.762V31.6703H178.749V21.1759L187.503 31.6703H193.29L183.832 20.3759Z" fill="black"/>
<path d="M71.5392 9.45923H67.1232V12.3088C65.6592 10.48 63.1696 9.45923 59.4528 9.45923H51.6992V31.6704H56.688V14.0704H59.4528C62.6528 14.0704 63.7824 15.5296 63.7824 19.2V31.6704H68.7696V17.8816C68.7696 16.4512 68.5632 15.1728 68.1296 14.0704H71.5392C74.7392 14.0704 75.8592 15.5296 75.8592 19.2V31.6704H80.8464V17.8816C80.8528 12.6592 78.12 9.45923 71.5392 9.45923Z" fill="black"/>
</g>
<defs>
<clipPath id="clip0_547_1179">
<rect width="192.79" height="32" fill="white" transform="translate(0.5)"/>
</clipPath>
</defs>
</svg>
