<svg width="96" height="96" viewBox="0 0 96 96" fill="none" xmlns="http://www.w3.org/2000/svg">
<g clip-path="url(#clip0_556_460)">
<path d="M30.0996 94.5444L37.2602 87.3838V58.7412H8.61767L1.45703 65.9019V94.5444H30.0996Z" fill="black" stroke="black" stroke-width="2.90852" stroke-linejoin="round"/>
<path d="M1.45703 65.9014L1.45703 94.5439H30.0996V65.9014H1.45703Z" fill="white" stroke="black" stroke-width="2.90852" stroke-linejoin="round"/>
<path d="M30.0996 65.9014L37.2602 58.7407V30.0981H8.61767L1.45703 37.2588V65.9014H30.0996Z" fill="black" stroke="black" stroke-width="2.90852" stroke-linejoin="round"/>
<path d="M1.45313 37.2588L1.45312 65.9014H30.0957V37.2588H1.45313Z" fill="white" stroke="black" stroke-width="2.90852" stroke-linejoin="round"/>
<path d="M30.0996 37.2588L37.2602 30.0981V1.45557H8.61767L1.45703 8.61621V37.2588H30.0996Z" fill="black" stroke="black" stroke-width="2.90852" stroke-linejoin="round"/>
<path d="M1.45313 8.61622L1.45312 37.2588H30.0957V8.61622H1.45313Z" fill="white" stroke="black" stroke-width="2.90852" stroke-linejoin="round"/>
<path d="M58.7402 65.9014L65.9009 58.7407V30.0981H37.2583L30.0977 37.2588V65.9014H58.7402Z" fill="black" stroke="black" stroke-width="2.90852" stroke-linejoin="round"/>
<path d="M30.0938 37.2588V65.9014H58.7363V37.2588H30.0938Z" fill="white" stroke="black" stroke-width="2.90852" stroke-linejoin="round"/>
<path d="M58.7402 37.2588L65.9009 30.0981V1.45557H37.2583L30.0977 8.61621V37.2588H58.7402Z" fill="black" stroke="black" stroke-width="2.90852" stroke-linejoin="round"/>
<path d="M30.0938 8.61622V37.2588H58.7363V8.61622H30.0938Z" fill="white" stroke="black" stroke-width="2.90852" stroke-linejoin="round"/>
<path d="M87.3848 37.2588L94.5454 30.0981V1.45557H65.9028L58.7422 8.61621V37.2588H87.3848Z" fill="black" stroke="black" stroke-width="2.90852" stroke-linejoin="round"/>
<path d="M58.7383 8.61331V37.2559H87.3809V8.61331H58.7383Z" fill="white" stroke="black" stroke-width="2.90852" stroke-linejoin="round"/>
</g>
<defs>
<clipPath id="clip0_556_460">
<rect width="96" height="96" fill="white"/>
</clipPath>
</defs>
</svg>
