<svg width="24" height="24" viewBox="0 0 24 24" fill="none" xmlns="http://www.w3.org/2000/svg">
<path d="M12.408 13.032C13.566 12.97 15.262 12.644 16.588 11.904C17.55 10.426 18.186 9.22001 18.812 7.90401C17.952 7.96801 16.96 7.89501 16.076 7.64701C17.144 7.46401 18.484 7.08201 19.498 6.43101C20.753 4.64701 21.683 1.77201 22 0.00200765C19.126 -0.0459924 16.434 0.892008 14.614 2.06601C14 2.76601 13.468 4.45501 13.342 5.34901C13.065 4.70301 12.863 3.66901 13.1 2.80701C11.642 3.57401 10.367 4.45001 8.923 5.66701C8.203 7.19501 8.089 8.95701 8.155 9.94301C7.764 9.39001 7.24 8.31301 7.313 7.13401C4.723 9.63801 2.936 12.918 4.631 16.458C6.51 14.517 8.67 12.675 9.985 11.819C6.949 15.293 4.119 19.866 2 24L4.504 23.214C5.588 21.235 6.563 19.53 7.437 18.309C10.666 18.732 13.533 16.141 15.465 13.514C14.695 13.704 13.219 13.456 12.408 13.032V13.032Z" fill="url(#paint0_linear_269_1633)"/>
<defs>
<linearGradient id="paint0_linear_269_1633" x1="12" y1="0.000244141" x2="12" y2="24" gradientUnits="userSpaceOnUse">
<stop/>
<stop offset="0.0001" stop-color="#FFB628"/>
<stop offset="1" stop-color="#D65A01"/>
</linearGradient>
</defs>
</svg>
