<svg width="24" height="24" viewBox="0 0 24 24" fill="none" xmlns="http://www.w3.org/2000/svg">
<g clip-path="url(#clip0_260_1577)">
<path d="M6.676 9.18C5.25 9.171 3.459 9.944 2.093 11.31C1.572 11.831 1.114 12.439 0.76 13.122C1.992 12.189 3.307 11.897 4.846 12.761C5.299 11.562 5.902 10.343 6.676 9.18ZM14.83 17.323C13.566 18.149 12.324 18.745 11.249 19.165C12.112 20.705 11.82 22.018 10.888 23.25C11.572 22.897 12.179 22.438 12.7 21.916C14.07 20.547 14.844 18.751 14.83 17.323ZM19.957 4.035C19.613 4.011 19.276 4 18.946 4C11.777 4 7.697 9.465 6.213 13.86L10.152 17.8C14.677 16.18 20 12.251 20 5.158C20 4.792 19.986 4.418 19.957 4.035ZM11.717 12.293C11.391 11.968 11.391 11.44 11.717 11.115C12.042 10.789 12.57 10.789 12.895 11.115C13.221 11.441 13.221 11.968 12.895 12.293C12.569 12.619 12.042 12.619 11.717 12.293ZM14.073 9.937C13.422 9.287 13.422 8.231 14.073 7.58C14.724 6.929 15.779 6.929 16.429 7.58C17.08 8.231 17.08 9.286 16.429 9.937C15.779 10.587 14.725 10.587 14.073 9.937ZM1.641 20.315L0.886 19.56L5.226 15.237L5.981 15.992L1.641 20.315ZM5.79 21.862L5.035 21.107L8.064 18.053L8.819 18.808L5.79 21.862ZM0.755 24L0 23.245L5.373 17.881L6.129 18.636L0.755 24ZM21.838 9.709C21.65 10.327 21.165 10.811 20.547 11C21.165 11.188 21.65 11.672 21.838 12.291C22.027 11.672 22.511 11.188 23.129 11C22.511 10.812 22.027 10.328 21.838 9.709ZM7.183 3.205C6.936 4.015 6.302 4.648 5.493 4.895C6.303 5.142 6.936 5.776 7.183 6.585C7.431 5.776 8.064 5.142 8.873 4.895C8.063 4.648 7.431 4.015 7.183 3.205ZM5.356 0C5.157 0.649 4.65 1.157 4 1.355C4.65 1.554 5.157 2.062 5.356 2.71C5.554 2.061 6.062 1.553 6.71 1.355C6.062 1.157 5.555 0.649 5.356 0ZM10.743 0C10.427 1.035 9.616 1.846 8.58 2.163C9.616 2.479 10.427 3.289 10.743 4.326C11.059 3.29 11.87 2.48 12.905 2.163C11.87 1.846 11.06 1.035 10.743 0ZM21.838 13.64C21.522 14.676 20.711 15.486 19.675 15.803C20.711 16.119 21.522 16.965 21.838 18C22.154 16.964 22.965 16.119 24 15.803C22.965 15.486 22.154 14.676 21.838 13.64Z" fill="url(#paint0_linear_260_1577)"/>
</g>
<defs>
<linearGradient id="paint0_linear_260_1577" x1="12" y1="0" x2="12" y2="24" gradientUnits="userSpaceOnUse">
<stop stop-color="#007AFF"/>
<stop offset="1" stop-color="#BA84FF"/>
</linearGradient>
<clipPath id="clip0_260_1577">
<rect width="24" height="24" fill="white"/>
</clipPath>
</defs>
</svg>
