<svg width="17" height="17" viewBox="0 0 17 17" fill="none" xmlns="http://www.w3.org/2000/svg">
<g clip-path="url(#clip0_505_3250)">
<path d="M2.20711 8.79289C1.81658 8.40237 1.18342 8.40237 0.792893 8.79289C0.402369 9.18342 0.402369 9.81658 0.792893 10.2071L2.20711 8.79289ZM5.5 13.5L4.79289 14.2071C5.18342 14.5976 5.81658 14.5976 6.20711 14.2071L5.5 13.5ZM16.2071 4.20711C16.5976 3.81658 16.5976 3.18342 16.2071 2.79289C15.8166 2.40237 15.1834 2.40237 14.7929 2.79289L16.2071 4.20711ZM0.792893 10.2071L4.79289 14.2071L6.20711 12.7929L2.20711 8.79289L0.792893 10.2071ZM6.20711 14.2071L16.2071 4.20711L14.7929 2.79289L4.79289 12.7929L6.20711 14.2071Z" fill="#766D69"/>
</g>
<defs>
<clipPath id="clip0_505_3250">
<rect width="16" height="16" fill="white" transform="translate(0.5 0.5)"/>
</clipPath>
</defs>
</svg>
